<?xml version="1.0" encoding="UTF-8" standalone="no"?> <svg xmlns="http://www.w3.org/2000/svg" xmlns:xlink="http://www.w3.org/1999/xlink" xmlns:serif="http://www.serif.com/" width="100%" height="100%" viewBox="0 0 300 150" xml:space="preserve" style="fill-rule:evenodd;clip-rule:evenodd;stroke-linejoin:round;stroke-miterlimit:1.41421;"><g><clipPath id="_clip1"><path d="M91.729,91.609c-1.096,-0.42 -1.813,-1.307 -1.813,-2.489c0,-1.434 1.18,-2.615 2.614,-2.615c0.421,0 0.757,0.084 1.052,0.21c1.856,0.844 3.837,1.35 6.24,1.35c4.385,0 6.45,-2.108 6.45,-6.161l0,-1.096c-1.898,2.279 -3.962,3.67 -7.376,3.67c-5.27,0 -10.035,-3.84 -10.035,-10.549l0,-0.083c0,-6.753 4.848,-10.549 10.035,-10.549c3.498,0 5.563,1.476 7.291,3.374l0,-0.042c0,-1.73 1.434,-3.164 3.205,-3.164c1.77,0 3.203,1.434 3.203,3.206l0,14.559c0,4.051 -0.968,7.005 -2.867,8.903c-2.107,2.11 -5.354,3.038 -9.736,3.038c-2.995,0 -5.609,-0.505 -8.263,-1.562Zm14.543,-17.68l0,-0.083c0,-3.082 -2.403,-5.233 -5.522,-5.233c-3.12,0 -5.481,2.151 -5.481,5.233l0,0.083c0,3.123 2.361,5.233 5.481,5.233c3.119,0 5.522,-2.152 5.522,-5.233Z"></path></clipPath><g clip-path="url(#_clip1)"><rect x="81.559" y="55.995" width="38.337" height="44.477" style="fill:#808285;fill-rule:nonzero;"></rect></g><clipPath id="_clip2"><path d="M116.222,66.671c0,-1.772 1.433,-3.206 3.205,-3.206c1.77,0 3.203,1.434 3.203,3.206l0,1.012c0.929,-2.192 2.444,-4.218 4.343,-4.218c1.982,0 3.119,1.308 3.119,3.121c0,1.689 -1.096,2.701 -2.402,2.997c-3.247,0.761 -5.06,3.249 -5.06,7.807l0,5.991c0,1.772 -1.433,3.208 -3.203,3.208c-1.772,0 -3.205,-1.436 -3.205,-3.208l0,-16.71Z"></path></clipPath><g clip-path="url(#_clip2)"><rect x="108.921" y="56.164" width="28.473" height="37.727" style="fill:#808285;fill-rule:nonzero;"></rect></g><clipPath id="_clip3"><path d="M129.334,79.836l0,-0.083c0,-4.937 3.751,-7.217 9.106,-7.217c2.276,0 3.92,0.38 5.523,0.929l0,-0.38c0,-2.657 -1.646,-4.136 -4.849,-4.136c-1.77,0 -3.204,0.255 -4.427,0.634c-0.379,0.127 -0.631,0.169 -0.926,0.169c-1.476,0 -2.656,-1.139 -2.656,-2.617c0,-1.138 0.714,-2.11 1.729,-2.49c2.023,-0.759 4.215,-1.18 7.208,-1.18c3.498,0 6.028,0.928 7.63,2.532c1.686,1.686 2.446,4.177 2.446,7.216l0,10.295c0,1.731 -1.391,3.081 -3.121,3.081c-1.854,0 -3.077,-1.308 -3.077,-2.659l0,-0.043c-1.56,1.731 -3.709,2.869 -6.83,2.869c-4.256,0 -7.756,-2.445 -7.756,-6.92Zm14.713,-1.476l0,-1.14c-1.097,-0.506 -2.529,-0.844 -4.091,-0.844c-2.74,0 -4.425,1.098 -4.425,3.124l0,0.084c0,1.731 1.434,2.743 3.499,2.743c2.994,0 5.017,-1.646 5.017,-3.967Z"></path></clipPath><g clip-path="url(#_clip3)"><rect x="122.033" y="56.164" width="35.386" height="37.894" style="fill:#808285;fill-rule:nonzero;"></rect></g><clipPath id="_clip4"><path d="M153.534,66.671c0,-1.772 1.432,-3.206 3.205,-3.206c1.769,0 3.203,1.434 3.203,3.206l0,0.255c1.474,-1.901 3.415,-3.629 6.661,-3.629c2.95,0 5.185,1.306 6.364,3.586c1.982,-2.32 4.343,-3.586 7.42,-3.586c4.765,0 7.632,2.868 7.632,8.313l0,11.771c0,1.772 -1.434,3.208 -3.205,3.208c-1.771,0 -3.205,-1.436 -3.205,-3.208l0,-9.662c0,-3.039 -1.348,-4.6 -3.75,-4.6c-2.404,0 -3.88,1.561 -3.88,4.6l0,9.662c0,1.772 -1.432,3.208 -3.203,3.208c-1.771,0 -3.205,-1.436 -3.205,-3.208l0,-9.662c0,-3.039 -1.347,-4.6 -3.751,-4.6c-2.404,0 -3.878,1.561 -3.878,4.6l0,9.662c0,1.772 -1.434,3.208 -3.203,3.208c-1.773,0 -3.205,-1.436 -3.205,-3.208l0,-16.71Z"></path></clipPath><g clip-path="url(#_clip4)"><rect x="146.232" y="55.995" width="49.088" height="37.895" style="fill:#808285;fill-rule:nonzero;"></rect></g><clipPath id="_clip5"><path d="M191.477,66.671c0,-1.772 1.432,-3.206 3.204,-3.206c1.771,0 3.205,1.434 3.205,3.206l0,0.255c1.473,-1.901 3.414,-3.629 6.66,-3.629c2.95,0 5.185,1.306 6.365,3.586c1.981,-2.32 4.343,-3.586 7.419,-3.586c4.765,0 7.631,2.868 7.631,8.313l0,11.771c0,1.772 -1.432,3.208 -3.204,3.208c-1.77,0 -3.204,-1.436 -3.204,-3.208l0,-9.662c0,-3.039 -1.349,-4.6 -3.752,-4.6c-2.403,0 -3.878,1.561 -3.878,4.6l0,9.662c0,1.772 -1.433,3.208 -3.205,3.208c-1.77,0 -3.202,-1.436 -3.202,-3.208l0,-9.662c0,-3.039 -1.349,-4.6 -3.753,-4.6c-2.404,0 -3.877,1.561 -3.877,4.6l0,9.662c0,1.772 -1.434,3.208 -3.205,3.208c-1.772,0 -3.204,-1.436 -3.204,-3.208l0,-16.71Z"></path></clipPath><g clip-path="url(#_clip5)"><rect x="184.175" y="55.995" width="49.088" height="37.895" style="fill:#808285;fill-rule:nonzero;"></rect></g><clipPath id="_clip6"><path d="M228.071,79.836l0,-0.083c0,-4.937 3.753,-7.217 9.105,-7.217c2.278,0 3.922,0.38 5.523,0.929l0,-0.38c0,-2.657 -1.643,-4.136 -4.849,-4.136c-1.77,0 -3.202,0.255 -4.424,0.634c-0.38,0.127 -0.633,0.169 -0.928,0.169c-1.477,0 -2.656,-1.139 -2.656,-2.617c0,-1.138 0.717,-2.11 1.728,-2.49c2.024,-0.759 4.216,-1.18 7.209,-1.18c3.5,0 6.029,0.928 7.63,2.532c1.687,1.686 2.445,4.177 2.445,7.216l0,10.295c0,1.731 -1.39,3.081 -3.118,3.081c-1.855,0 -3.078,-1.308 -3.078,-2.659l0,-0.043c-1.56,1.731 -3.711,2.869 -6.829,2.869c-4.259,0 -7.758,-2.445 -7.758,-6.92Zm14.714,-1.476l0,-1.14c-1.096,-0.506 -2.53,-0.844 -4.089,-0.844c-2.742,0 -4.427,1.098 -4.427,3.124l0,0.084c0,1.731 1.432,2.743 3.498,2.743c2.993,0 5.018,-1.646 5.018,-3.967Z"></path></clipPath><g clip-path="url(#_clip6)"><rect x="220.77" y="56.164" width="35.385" height="37.894" style="fill:#808285;fill-rule:nonzero;"></rect></g><clipPath id="_clip7"><path d="M252.27,66.671c0,-1.772 1.434,-3.206 3.205,-3.206c1.771,0 3.203,1.434 3.203,3.206l0,1.012c0.928,-2.192 2.446,-4.218 4.344,-4.218c1.98,0 3.118,1.308 3.118,3.121c0,1.689 -1.097,2.701 -2.402,2.997c-3.247,0.761 -5.06,3.249 -5.06,7.807l0,5.991c0,1.772 -1.432,3.208 -3.203,3.208c-1.771,0 -3.205,-1.436 -3.205,-3.208l0,-16.71Z"></path></clipPath><g clip-path="url(#_clip7)"><rect x="244.968" y="56.164" width="28.473" height="37.727" style="fill:#808285;fill-rule:nonzero;"></rect></g><clipPath id="_clip8"><path d="M268.08,58.484c0,-1.772 1.433,-3.206 3.204,-3.206c1.771,0 3.205,1.434 3.205,3.206l0,24.897c0,1.772 -1.434,3.208 -3.205,3.208c-1.771,0 -3.204,-1.436 -3.204,-3.208l0,-24.897Z"></path></clipPath><g clip-path="url(#_clip8)"><rect x="260.779" y="47.977" width="21.011" height="45.914" style="fill:#808285;fill-rule:nonzero;"></rect></g><clipPath id="_clip9"><path d="M279.59,92.623c-0.928,-0.337 -2.024,-1.097 -2.024,-2.658c0,-1.562 1.222,-2.618 2.53,-2.618c0.505,0 0.801,0.086 1.053,0.17c0.548,0.169 0.886,0.254 1.35,0.254c1.138,0 1.686,-0.212 2.276,-1.352l0.211,-0.506l-7.714,-17.892c-0.169,-0.422 -0.338,-1.054 -0.338,-1.476c0,-1.815 1.391,-3.08 3.162,-3.08c1.601,0 2.528,0.886 3.077,2.403l4.891,13.168l4.72,-13.125c0.507,-1.348 1.433,-2.446 3.078,-2.446c1.644,0 3.034,1.265 3.034,2.954c0,0.507 -0.167,1.223 -0.293,1.518l-7.884,18.948c-1.897,4.598 -3.794,6.329 -7.63,6.329c-1.434,0 -2.445,-0.21 -3.499,-0.591Z"></path></clipPath><g clip-path="url(#_clip9)"><rect x="269.633" y="56.164" width="36.565" height="44.352" style="fill:#808285;fill-rule:nonzero;"></rect></g><clipPath id="_clip10"><path d="M71.129,75c0,19.355 -15.675,35.047 -35.013,35.047c-19.336,0 -35.013,-15.692 -35.013,-35.047c0,-19.356 15.677,-35.047 35.013,-35.047c19.338,0 35.013,15.691 35.013,35.047Z"></path></clipPath><g clip-path="url(#_clip10)"><rect x="-6.198" y="32.652" width="84.628" height="84.697" style="fill:#808285;fill-rule:nonzero;"></rect></g><clipPath id="_clip11"><path d="M40.692,82.567c0.207,1.148 1.285,1.934 2.449,1.934l3.669,0l2.127,-0.298c-3.402,4.996 -9.311,7.295 -15.77,6.28c-5.257,-0.825 -9.774,-4.386 -11.681,-9.36c-4.326,-11.29 3.912,-22.069 14.645,-22.069c5.594,0 10.502,3.276 13.313,7.236c0.81,1.143 2.228,1.472 3.306,0.724c1.023,-0.71 1.321,-2.059 0.707,-3.119c-3.891,-6.08 -10.883,-9.97 -18.746,-9.443c-10.237,0.687 -18.522,9.073 -19.111,19.326c-0.683,11.932 8.771,21.673 20.531,21.673c6.178,0 11.708,-2.692 15.476,-7.049l-0.446,2.499l0,2.258c0,1.164 0.784,2.245 1.93,2.452c1.505,0.271 2.815,-0.88 2.815,-2.336l0,-13.525l-12.882,0c-1.455,0 -2.604,1.312 -2.332,2.817Z"></path></clipPath><g clip-path="url(#_clip11)"><rect x="8.264" y="47.103" width="54.943" height="55.849" style="fill:#fff;fill-rule:nonzero;"></rect></g></g></svg> 