<?xml version="1.0" encoding="UTF-8" standalone="no"?> <svg xmlns="http://www.w3.org/2000/svg" xmlns:xlink="http://www.w3.org/1999/xlink" xmlns:serif="http://www.serif.com/" width="100%" height="100%" viewBox="0 0 300 150" version="1.1" xml:space="preserve" style="fill-rule:evenodd;clip-rule:evenodd;stroke-linejoin:round;stroke-miterlimit:1.41421;"><g id="Layer1"><path d="M66.704,95.886l-26.144,-11.047l-0.808,1.218l0,9.829l26.952,0Zm-1.922,-4.458l-24.222,-11.663l-0.808,-0.772l0.384,-23.262l0.424,-1.617" style="fill:#808285;fill-rule:nonzero;"></path><path d="M16.331,91.428l24.229,-37.314l0,25.651" style="fill:#808285;fill-rule:nonzero;"></path><path d="M14.415,95.886l26.145,0l0,-11.047" style="fill:#808285;fill-rule:nonzero;"></path><path d="M94.534,63.927l4.322,0c7.843,0 11.764,3.867 11.764,10.857c0,6.986 -3.923,10.86 -11.764,10.86l-4.322,0l0,-21.717Zm-7.43,27.498l11.758,0c12.079,0 19.292,-6.253 19.292,-16.642c0,-10.385 -7.212,-16.633 -19.292,-16.633l-11.758,0" style="fill:#808285;fill-rule:nonzero;"></path><path d="M143.404,77.001l14.131,0.002l0,-5.78l-14.131,0l0,-7.296l15.974,0l0,-5.776l-23.412,0l0,33.274l23.933,0.001l0,-5.78l-16.495,-0.002" style="fill:#808285;fill-rule:nonzero;"></path><path d="M202.248,85.646l-14.33,0l0,-27.495l-7.462,0l0,33.275l21.792,0" style="fill:#808285;fill-rule:nonzero;"></path><path d="M242.388,58.151l-29.869,0l0,5.776l11.197,0l0,27.499l7.471,0l0,-27.499l11.201,0" style="fill:#808285;fill-rule:nonzero;"></path><path d="M272.428,77.524l-4.65,-11.812l-4.661,11.812l9.311,0Zm13.157,13.902l-7.784,0l-3.261,-8.336l-13.54,0l-3.25,8.336l-7.273,0l13.918,-33.421l7.507,0" style="fill:#808285;fill-rule:nonzero;"></path></g></svg> 